<?xml version="1.0" encoding="UTF-8"?>
<!DOCTYPE svg PUBLIC "-//W3C//DTD SVG 1.1//EN" "http://www.w3.org/Graphics/SVG/1.1/DTD/svg11.dtd">
<!-- Creator: CorelDRAW X8 -->
<svg xmlns="http://www.w3.org/2000/svg" xml:space="preserve" width="210mm" height="297mm" version="1.1" style="shape-rendering:geometricPrecision; text-rendering:geometricPrecision; image-rendering:optimizeQuality; fill-rule:evenodd; clip-rule:evenodd"
viewBox="0 0 21000 29700"
 xmlns:xlink="http://www.w3.org/1999/xlink">
 <defs>
  <style type="text/css">
   <![CDATA[
    .fil0 {fill:#1D1819;fill-rule:nonzero}
   ]]>
  </style>
 </defs>
 <g id="Layer_x0020_1">
  <metadata id="CorelCorpID_0Corel-Layer"/>
  <path class="fil0" d="M5617 24173l0 144 4 0c44,-67 93,-114 147,-140 55,-26 119,-39 192,-39 143,0 245,43 306,129 62,86 92,198 92,337l0 691 -376 0 0 -547c0,-3 0,-6 0,-11 0,-4 0,-9 0,-13 0,-13 0,-27 0,-41 0,-15 0,-30 -2,-44 -2,-45 -15,-87 -37,-126 -22,-39 -65,-58 -130,-58 -76,0 -128,26 -155,78 -28,51 -41,112 -41,182l0 580 -377 0 0 -1122 377 0zm785 0l376 0 0 599c0,73 12,132 36,177 24,46 75,68 152,68 77,0 128,-22 152,-68 24,-45 36,-103 36,-175l0 -601 376 0 0 676c0,186 -54,314 -162,382 -108,67 -242,101 -402,101 -159,0 -292,-34 -401,-101 -109,-68 -163,-195 -163,-380l0 -678zm2258 586l0 42 -791 0c0,81 20,144 60,187 40,43 98,64 175,64 40,0 75,-8 105,-24 29,-16 54,-42 75,-79l362 0c-31,134 -98,231 -202,292 -104,61 -216,91 -338,91 -175,0 -321,-50 -438,-152 -117,-101 -175,-249 -175,-443 0,-186 54,-333 164,-439 110,-107 250,-160 423,-160 184,0 327,56 428,168 102,113 152,264 152,455l0 -2zm-785 -188l436 0c-10,-53 -35,-95 -75,-127 -41,-32 -87,-48 -138,-48 -55,0 -103,15 -144,44 -42,30 -68,73 -79,131zm1025 -398l254 575 252 -575 422 0 -554 1122 -240 0 -556 -1122 422 0zm1981 0l0 1122 -376 0 0 -125 -4 0c-30,53 -71,92 -124,117 -52,26 -106,40 -163,43 -5,1 -11,2 -17,2 -5,0 -11,0 -16,0 -157,0 -286,-59 -385,-178 -100,-119 -150,-259 -150,-419 0,-160 49,-300 148,-419 98,-119 226,-178 383,-178 7,0 14,0 20,0 7,0 14,1 21,2 54,4 107,19 158,43 52,24 95,58 129,101l0 -111 376 0zm-605 308c-76,2 -135,28 -178,78 -42,50 -64,110 -64,178 0,72 22,131 64,180 43,48 102,72 178,72 77,0 137,-24 179,-73 42,-48 63,-108 63,-180 0,-69 -21,-129 -63,-179 -42,-51 -102,-76 -179,-76zm1033 -308l0 144 4 0c44,-67 94,-114 148,-140 54,-26 118,-39 191,-39 143,0 246,43 307,129 61,86 92,198 92,337l0 691 -376 0 0 -547c0,-3 0,-6 0,-11 0,-4 0,-9 0,-13 0,-13 0,-27 0,-41 0,-15 -1,-30 -2,-44 -3,-45 -15,-87 -37,-126 -22,-39 -66,-58 -131,-58 -75,0 -127,26 -155,78 -27,51 -41,112 -41,182l0 580 -376 0 0 -1122 376 0zm1881 586l0 42 -792 0c0,81 20,144 60,187 40,43 98,64 176,64 40,0 74,-8 104,-24 30,-16 55,-42 75,-79l362 0c-30,134 -97,231 -201,292 -104,61 -217,91 -338,91 -175,0 -321,-50 -438,-152 -117,-101 -176,-249 -176,-443 0,-186 55,-333 164,-439 110,-107 251,-160 423,-160 184,0 327,56 429,168 101,113 152,264 152,455l0 -2zm-786 -188l436 0c-9,-53 -35,-95 -75,-127 -41,-32 -87,-48 -138,-48 -55,0 -103,15 -144,44 -42,30 -68,73 -79,131zm1585 -363l-126 254c-16,-9 -35,-17 -55,-24 -20,-8 -40,-14 -61,-18 -15,-3 -30,-5 -44,-8 -15,-2 -29,-3 -42,-3 -7,0 -15,0 -22,1 -8,1 -15,3 -22,6 -19,4 -36,12 -51,23 -16,11 -23,26 -23,47 0,24 10,43 30,55 20,13 42,22 67,28 14,4 27,7 39,10 13,2 24,4 33,5 88,19 162,53 220,103 59,49 88,126 88,230 0,143 -49,246 -149,311 -99,65 -208,100 -328,104 -4,0 -8,0 -12,0 -3,0 -7,0 -11,0 -76,0 -150,-11 -222,-33 -72,-21 -141,-53 -206,-94l137 -280c23,19 50,36 80,52 31,15 62,29 93,40 22,8 44,13 64,18 21,4 41,6 60,6 6,0 12,0 18,-1 6,-1 13,-2 19,-3 21,-4 40,-13 56,-26 17,-13 25,-32 25,-55 0,-32 -14,-55 -43,-69 -29,-14 -64,-25 -104,-34 -15,-3 -30,-6 -44,-10 -15,-3 -29,-7 -45,-12 -59,-16 -113,-44 -162,-84 -49,-40 -73,-110 -73,-211 0,-136 47,-236 142,-300 96,-64 200,-97 312,-98 3,0 6,0 8,0 2,0 4,0 5,0 61,0 120,5 179,16 58,11 115,30 170,56l0 -2zm411 -35l0 1122 -376 0 0 -1122 376 0zm-188 -654c58,1 108,24 149,68 41,43 62,96 62,157 0,61 -21,114 -62,158 -41,43 -91,65 -149,65 -58,0 -107,-22 -149,-65 -41,-44 -62,-97 -62,-158 0,-62 21,-115 62,-159 42,-44 91,-66 149,-66zm1397 654l0 1122 -376 0 0 -125 -4 0c-31,53 -72,92 -124,117 -53,26 -107,40 -163,43 -6,1 -11,2 -17,2 -5,0 -11,0 -16,0 -158,0 -286,-59 -386,-178 -100,-119 -150,-259 -150,-419 0,-160 50,-300 148,-419 99,-119 226,-178 383,-178 7,0 14,0 21,0 7,0 14,1 21,2 53,4 106,19 158,43 51,24 94,58 129,101l0 -111 376 0zm-605 308c-76,2 -135,28 -178,78 -43,50 -64,110 -64,178 0,72 21,131 64,180 43,48 102,72 178,72 77,0 136,-24 178,-73 42,-48 63,-108 63,-180 0,-69 -21,-129 -63,-179 -42,-51 -101,-76 -178,-76z"/>
  <path class="fil0" d="M5857 25719l69 399 -45 0 -9 -58 -75 0 -9 58 -45 0 67 -399 47 0zm-54 302l62 0 -31 -200 -31 200zm404 -302c24,0 44,7 58,22 14,15 21,38 21,70l0 215c0,31 -7,54 -21,69 -14,15 -34,23 -58,23l-83 0 0 -399 83 0zm-36 353l32 0c25,0 37,-14 37,-43l0 -221c0,-29 -12,-44 -37,-44l-32 0 0 308zm347 -353l45 296 47 -296 45 0 -69 399 -46 0 -68 -399 46 0zm468 0l0 45 -86 0 0 126 61 0 0 45 -61 0 0 137 86 0 0 46 -132 0 0 -399 132 0zm255 0l67 275 0 -275 41 0 0 399 -42 0 -77 -294 0 294 -40 0 0 -399 51 0zm444 0l0 45 -45 0 0 354 -47 0 0 -354 -44 0 0 -45 136 0zm245 0l0 325c0,12 4,21 10,27 7,6 15,9 26,9 10,0 19,-3 26,-9 6,-6 10,-15 10,-27l0 -325 46 0 0 326c0,13 -3,24 -7,34 -4,9 -10,18 -17,25 -8,7 -17,12 -27,16 -10,3 -20,5 -32,5 -12,0 -22,-2 -32,-5 -10,-4 -18,-9 -26,-16 -7,-7 -13,-16 -17,-25 -4,-10 -6,-21 -6,-34l0 -326 46 0zm410 0c25,0 44,7 58,21 14,14 21,33 21,58l0 55c0,16 -2,29 -7,38 -5,8 -12,15 -21,19 10,4 18,11 23,20 6,9 8,22 8,38l0 150 -46 0 0 -152c0,-12 -3,-21 -7,-26 -5,-6 -15,-8 -29,-8l-35 0 0 186 -46 0 0 -399 81 0zm-35 173l32 0c14,0 23,-3 29,-9 5,-5 7,-15 7,-28l0 -52c0,-26 -12,-40 -36,-40l-32 0 0 129zm458 -173l0 45 -85 0 0 126 60 0 0 45 -60 0 0 137 85 0 0 46 -132 0 0 -399 132 0zm549 0l0 45 -85 0 0 126 60 0 0 45 -60 0 0 137 85 0 0 46 -132 0 0 -399 132 0zm376 0l-68 191 74 208 -49 0 -51 -146 -50 146 -45 0 71 -212 -65 -187 47 0 45 126 46 -126 45 0zm284 0c25,0 44,7 59,22 14,15 21,38 21,70l0 58c0,31 -7,54 -21,69 -15,15 -34,22 -59,22l-35 0 0 158 -47 0 0 -399 82 0zm-35 196l32 0c24,0 37,-14 37,-43l0 -64c0,-29 -13,-44 -37,-44l-32 0 0 151zm452 -196l0 45 -85 0 0 126 60 0 0 45 -60 0 0 137 85 0 0 46 -132 0 0 -399 132 0zm285 0c24,0 44,7 58,21 14,14 21,33 21,58l0 55c0,16 -2,29 -7,38 -5,8 -12,15 -21,19 10,4 17,11 23,20 5,9 8,22 8,38l0 150 -46 0 0 -152c0,-12 -3,-21 -8,-26 -5,-6 -14,-8 -28,-8l-35 0 0 186 -46 0 0 -399 81 0zm-35 173l31 0c14,0 24,-3 29,-9 6,-5 8,-15 8,-28l0 -52c0,-26 -12,-40 -37,-40l-31 0 0 129zm373 -173l0 399 -47 0 0 -399 47 0zm344 0l0 45 -85 0 0 126 60 0 0 45 -60 0 0 137 85 0 0 46 -132 0 0 -399 132 0zm255 0l68 275 0 -275 41 0 0 399 -42 0 -77 -294 0 294 -41 0 0 -399 51 0zm365 326c0,12 3,20 10,26 6,6 14,9 24,9 11,0 19,-3 25,-9 7,-6 10,-14 10,-26l0 -8 43 -11 0 20c0,12 -2,23 -6,33 -4,10 -10,18 -17,25 -7,7 -16,12 -25,16 -10,3 -20,5 -32,5 -10,0 -21,-2 -30,-5 -10,-4 -18,-9 -25,-16 -7,-7 -13,-15 -17,-25 -4,-10 -6,-21 -6,-33l0 -255c0,-13 2,-23 6,-33 4,-10 10,-18 17,-25 7,-7 16,-12 25,-16 10,-3 21,-5 33,-5 24,0 43,7 57,21 13,14 20,33 20,58l0 13 -43 0 0 -12c0,-12 -3,-20 -9,-26 -6,-6 -14,-9 -25,-9 -10,0 -19,3 -25,9 -7,6 -10,14 -10,26l0 253zm447 -326l0 45 -85 0 0 126 60 0 0 45 -60 0 0 137 85 0 0 46 -132 0 0 -399 132 0zm586 -7c24,0 43,7 57,21 13,14 20,33 20,57l0 14 -43 0 0 -11c0,-11 -3,-20 -9,-27 -6,-7 -15,-10 -26,-10 -12,0 -22,4 -27,12 -6,8 -9,18 -9,30 0,10 1,19 5,28 4,9 9,18 16,27 4,7 9,14 16,23 7,8 13,17 20,27 7,9 14,18 21,27 6,9 12,17 16,25 8,12 14,24 17,35 4,12 6,25 6,39 0,30 -7,53 -20,70 -12,17 -33,26 -60,26 -13,0 -25,-2 -36,-6 -10,-4 -19,-10 -26,-17 -7,-7 -12,-15 -16,-24 -4,-10 -6,-20 -6,-31l0 -21 43 11 0 9c0,10 3,18 10,25 7,8 16,11 28,11 13,0 22,-4 29,-12 6,-8 9,-20 9,-35 0,-9 -1,-18 -4,-28 -3,-9 -8,-20 -16,-31 -4,-6 -8,-13 -14,-20 -6,-7 -11,-14 -17,-22 -7,-8 -13,-16 -19,-24 -6,-8 -11,-16 -16,-23 -11,-18 -19,-35 -23,-49 -5,-14 -7,-27 -7,-40 0,-27 8,-48 22,-63 15,-16 35,-23 59,-23zm416 7l0 45 -85 0 0 126 60 0 0 45 -60 0 0 137 85 0 0 46 -132 0 0 -399 132 0zm285 0c24,0 44,7 58,21 14,14 21,33 21,58l0 55c0,16 -3,29 -7,38 -5,8 -12,15 -21,19 10,4 17,11 23,20 5,9 8,22 8,38l0 150 -46 0 0 -152c0,-12 -3,-21 -8,-26 -5,-6 -14,-8 -29,-8l-34 0 0 186 -46 0 0 -399 81 0zm-35 173l31 0c14,0 24,-3 29,-9 5,-5 8,-15 8,-28l0 -52c0,-26 -12,-40 -37,-40l-31 0 0 129zm345 -173l46 296 46 -296 45 0 -68 399 -47 0 -67 -399 45 0zm383 0l0 399 -47 0 0 -399 47 0zm256 326c0,12 3,20 10,26 6,6 14,9 24,9 11,0 19,-3 25,-9 7,-6 10,-14 10,-26l0 -8 43 -11 0 20c0,12 -2,23 -6,33 -4,10 -10,18 -17,25 -7,7 -16,12 -25,16 -10,3 -20,5 -32,5 -10,0 -21,-2 -30,-5 -10,-4 -18,-9 -25,-16 -7,-7 -13,-15 -17,-25 -4,-10 -6,-21 -6,-33l0 -255c0,-13 2,-23 6,-33 4,-10 10,-18 17,-25 7,-7 16,-12 25,-16 10,-3 21,-5 33,-5 24,0 43,7 57,21 13,14 20,33 20,58l0 13 -43 0 0 -12c0,-12 -3,-20 -9,-26 -6,-6 -14,-9 -25,-9 -10,0 -19,3 -25,9 -7,6 -10,14 -10,26l0 253zm447 -326l0 45 -85 0 0 126 60 0 0 45 -60 0 0 137 85 0 0 46 -132 0 0 -399 132 0z"/>
  <path class="fil0" d="M8706 23755c-26,18 -63,12 -81,-14 -19,-26 -13,-62 13,-81l1742 -1245c21,-16 50,-14 69,1l0 0 753 598c6,-11 15,-20 26,-26l719 -358 0 0c2,-1 4,-2 6,-3 18,-6 39,-3 54,8l0 0 0 0 2 1 0 1 3 1 0 0 2 2 1 0 3 2 7 4 1 1 3 2 1 1 3 1 2 1 2 2 3 1 2 2 3 2 2 1 3 2 3 2 3 1 2 2 12 7 4 3 2 1 5 3 2 1 4 3 2 2 5 3 2 1 8 5 5 3 2 1 8 5 6 4 1 1 7 4 1 1 8 5 1 0 7 5 1 1 8 5 1 0 8 6 0 0 9 5 0 0 9 6 1 0 9 6 0 0 9 6 1 1 9 5 1 1 9 5 1 1 9 6 2 1 8 5 2 2 8 5 3 1 8 5 2 2 8 5 3 2 8 5 9 6 2 1 4 3 7 4 4 3 7 4 4 3 7 4 1 1 10 7 6 3 6 4 6 4 12 7 5 4 7 4 5 3 7 5 5 3 7 5 5 3 7 5 5 3 8 5 4 2 8 6 4 2 9 6 3 2 10 6 3 2 10 7 2 1 10 7 3 2 10 7 2 1 11 7 2 1 11 7 2 1 12 8 0 0 13 9 0 0 13 8c155,102 321,212 468,314l26 18c216,150 396,276 418,362 14,58 -10,98 -83,116 -3,1 -7,1 -10,1 -20,2 -151,-2 -280,-26 -142,-26 -285,-78 -310,-178 -2,-7 -3,-13 -4,-20 -1,-20 -120,-75 -255,-138 -179,-84 -384,-179 -460,-299 -3,-4 -5,-9 -7,-13l-137 -372 -648 323 618 491c26,20 30,56 10,81 -1,1 -2,3 -3,4 -39,62 -150,46 -260,29 -70,-10 -136,-48 -138,-34 -1,2 -1,4 -1,6 -5,23 -30,79 -78,123 -48,44 -119,79 -218,66 -8,-2 -16,-3 -24,-5 -142,-30 -213,-88 -295,-154 -21,-16 -42,-34 -66,-51 -7,-6 -19,15 -47,25 -48,17 -100,36 -148,31 -72,-8 -121,-55 -106,-187l1 -4c13,-122 18,-165 17,-167 -8,-19 -7,-30 -5,-42 1,-4 1,-9 -101,-117 -9,-10 -14,-21 -16,-34l0 0 -65 -582 -1662 1190z"/>
  <path class="fil0" d="M15760 25081c28,0 53,11 72,30 18,18 29,43 29,71 0,28 -11,54 -29,72 -19,18 -44,30 -72,30 -28,0 -53,-12 -72,-30 -18,-18 -29,-44 -29,-72 0,-28 11,-53 29,-71 19,-19 44,-30 72,-30zm-35 52l34 0c11,0 20,2 25,6 5,4 8,9 8,17l0 6c0,10 -5,17 -15,19l0 0c6,2 10,4 12,7 2,4 3,8 3,14l0 17c0,3 0,5 1,7 0,2 1,3 2,5l-23 0c-1,-1 -2,-3 -2,-4 0,-2 0,-4 0,-8l0 -18c0,-4 -1,-7 -3,-9 -3,-2 -6,-3 -11,-3l-8 0 0 42 -23 0 0 -98zm31 42c5,0 8,0 10,-2 2,-2 4,-4 4,-8l0 -8c0,-3 -1,-6 -3,-7 -2,-2 -5,-3 -9,-3l-10 0 0 28 8 0zm64 -53c-15,-15 -37,-24 -60,-24 -23,0 -45,9 -60,24 -15,16 -25,37 -25,60 0,24 10,45 25,60 15,16 37,25 60,25 23,0 45,-9 60,-25 15,-15 25,-36 25,-60 0,-23 -10,-44 -25,-60z"/>
 </g>
</svg>
